<svg xmlns="http://www.w3.org/2000/svg" version="1.1" xmlns:xlink="http://www.w3.org/1999/xlink" viewBox="0 0 7.963967595058064 8.409721816783641"><g transform="matrix(1,0,0,1,0.6819336266305949,6.647788190153046)"><rect width="8.409721816783641" height="8.409721816783641" x="-0.9048107374933831" y="-6.647788190153046" fill="#ffffff"></rect><g clip-path="url(#SvgjsClipPath1002)"><g clip-path="url(#SvgjsClipPath1000b014efb5-45e9-4e24-95fb-6a52405752e4)"><path d=" M 0.4421228891372119 -4.060569709014967 L 2.3474077436446956 -4.060569709014967 L 2.3474077436446956 -2.1552848545074834 L 0.4421228891372119 -2.1552848545074834 Z" fill="#173054" transform="matrix(1,0,0,1,0,0)" fill-rule="nonzero"></path></g><g clip-path="url(#SvgjsClipPath1000b014efb5-45e9-4e24-95fb-6a52405752e4)"><path d=" M 2.3474077436446956 -0.25 L 2.3474077436446956 -0.25 C 2.3474077436446956 -0.25 4.252692598152179 -0.25 4.252692598152179 -0.25 L 4.252692598152179 -2.1552848545074834 L 6.1579774526596625 -2.1552848545074834 L 6.1579774526596625 -4.060569709014967 L 6.1579774526596625 -4.060569709014967 C 4.053462769902193 -4.060569709014967 2.3474077436446956 -2.354514682757467 2.3474077436446956 -0.25 Z" fill="#225777" transform="matrix(1,0,0,1,0,0)" fill-rule="nonzero"></path></g><g clip-path="url(#SvgjsClipPath1000b014efb5-45e9-4e24-95fb-6a52405752e4)"><path d=" M 2.3474077436446956 -5.96585456352245 L 4.252692598152179 -5.96585456352245 L 4.252692598152179 -4.060569709014967 L 2.3474077436446956 -4.060569709014967 Z" fill="#173054" transform="matrix(1,0,0,1,0,0)" fill-rule="nonzero"></path></g></g><g><path d=" M 0.0915 1.0709999999999997 L 0.0915 0.005999999999999783 L 0.8220000000000001 0.005999999999999783 L 0.8220000000000001 0.2609999999999997 L 0.384 0.2609999999999997 L 0.384 0.4379999999999997 L 0.741 0.4379999999999997 L 0.741 0.6749999999999997 L 0.384 0.6749999999999997 L 0.384 1.0709999999999997 L 0.0915 1.0709999999999997 M 0.934482421875 1.0709999999999997 L 0.934482421875 0.005999999999999783 L 1.2269824218749998 0.005999999999999783 L 1.2269824218749998 1.0709999999999997 L 0.934482421875 1.0709999999999997 M 1.7010073242187498 0.5474999999999998 L 1.7010073242187498 1.0709999999999997 L 1.4085073242187498 1.0709999999999997 L 1.4085073242187498 0.005999999999999783 L 1.63650732421875 0.005999999999999783 L 2.0640073242187498 0.5474999999999998 L 2.0640073242187498 0.005999999999999783 L 2.35650732421875 0.005999999999999783 L 2.35650732421875 1.0709999999999997 L 2.12400732421875 1.0709999999999997 L 1.7010073242187498 0.5474999999999998 M 2.8305498046874997 0.5474999999999998 L 2.8305498046874997 1.0709999999999997 L 2.5380498046874997 1.0709999999999997 L 2.5380498046874997 0.005999999999999783 L 2.7660498046875 0.005999999999999783 L 3.1935498046874997 0.5474999999999998 L 3.1935498046874997 0.005999999999999783 L 3.4860498046875 0.005999999999999783 L 3.4860498046875 1.0709999999999997 L 3.2535498046874998 1.0709999999999997 L 2.8305498046874997 0.5474999999999998 M 4.14759228515625 1.0799999999999996 Q 4.02609228515625 1.0799999999999996 3.9270922851562498 1.0342499999999997 Q 3.8280922851562496 0.9884999999999997 3.75684228515625 0.9112499999999997 Q 3.68559228515625 0.8339999999999997 3.64734228515625 0.7372499999999997 Q 3.6090922851562497 0.6404999999999997 3.6090922851562497 0.5369999999999997 Q 3.6090922851562497 0.43049999999999977 3.64959228515625 0.3344999999999997 Q 3.6900922851562497 0.2384999999999997 3.7628422851562497 0.16274999999999973 Q 3.83559228515625 0.08699999999999974 3.9353422851562496 0.04349999999999965 Q 4.035092285156249 -2.220446049250313e-16 4.1535922851562495 -2.220446049250313e-16 Q 4.27509228515625 -2.220446049250313e-16 4.37409228515625 0.045749999999999735 Q 4.47309228515625 0.09149999999999969 4.54359228515625 0.16949999999999976 Q 4.61409228515625 0.24749999999999972 4.65234228515625 0.3442499999999997 Q 4.690592285156249 0.4409999999999997 4.690592285156249 0.5429999999999997 Q 4.690592285156249 0.6479999999999997 4.65084228515625 0.7439999999999998 Q 4.61109228515625 0.8399999999999997 4.53834228515625 0.9157499999999997 Q 4.46559228515625 0.9914999999999997 4.3665922851562495 1.0357499999999997 Q 4.267592285156249 1.0799999999999996 4.14759228515625 1.0799999999999996 M 3.90609228515625 0.5399999999999997 Q 3.90609228515625 0.5939999999999996 3.92109228515625 0.6442499999999998 Q 3.9360922851562496 0.6944999999999997 3.96609228515625 0.7342499999999997 Q 3.9960922851562497 0.7739999999999998 4.04184228515625 0.7972499999999998 Q 4.08759228515625 0.8204999999999998 4.15059228515625 0.8204999999999998 Q 4.21359228515625 0.8204999999999998 4.26009228515625 0.7964999999999998 Q 4.30659228515625 0.7724999999999997 4.33584228515625 0.7312499999999997 Q 4.3650922851562495 0.6899999999999997 4.37934228515625 0.6397499999999997 Q 4.39359228515625 0.5894999999999997 4.39359228515625 0.5369999999999997 Q 4.39359228515625 0.48299999999999976 4.37859228515625 0.43349999999999966 Q 4.363592285156249 0.3839999999999997 4.33359228515625 0.3442499999999997 Q 4.30359228515625 0.30449999999999966 4.25709228515625 0.2819999999999997 Q 4.21059228515625 0.25949999999999973 4.14909228515625 0.25949999999999973 Q 4.08609228515625 0.25949999999999973 4.04034228515625 0.28349999999999975 Q 3.9945922851562496 0.30749999999999966 3.96459228515625 0.3472499999999997 Q 3.9345922851562496 0.3869999999999997 3.92034228515625 0.4372499999999997 Q 3.90609228515625 0.4874999999999997 3.90609228515625 0.5399999999999997 M 4.977091552734374 0.005999999999999783 L 5.185591552734374 0.7334999999999997 L 5.391091552734375 0.005999999999999783 L 5.698591552734374 0.005999999999999783 L 5.3310915527343745 1.0709999999999997 L 5.040091552734375 1.0709999999999997 L 4.668091552734375 0.005999999999999783 L 4.977091552734374 0.005999999999999783 M 5.937112060546875 0.005999999999999783 L 6.264112060546875 0.005999999999999783 L 6.6031120605468745 1.0709999999999997 L 6.306112060546875 1.0709999999999997 L 6.241612060546875 0.8624999999999997 L 5.958112060546875 0.8624999999999997 L 5.895112060546874 1.0709999999999997 L 5.5966120605468745 1.0709999999999997 L 5.937112060546875 0.005999999999999783 M 6.195112060546875 0.6674999999999998 L 6.100612060546875 0.29249999999999976 L 6.001612060546875 0.6674999999999998 L 6.195112060546875 0.6674999999999998" fill="#173054" fill-rule="nonzero"></path></g><g></g></g><defs><clipPath id="SvgjsClipPath1002"><path d=" M 0.4421228891372122 -5.96585456352245 h 5.71585456352245 v 5.71585456352245 h -5.71585456352245 Z"></path></clipPath><clipPath id="SvgjsClipPath1000b014efb5-45e9-4e24-95fb-6a52405752e4"><path d=" M 0.4421228891372122 -5.96585456352245 L 6.1579774526596625 -5.96585456352245 L 6.1579774526596625 -0.25 L 0.4421228891372122 -0.25 Z"></path></clipPath></defs></svg>